<?xml version="1.0" standalone="no"?>
<!DOCTYPE svg PUBLIC "-//W3C//DTD SVG 20010904//EN"
 "http://www.w3.org/TR/2001/REC-SVG-20010904/DTD/svg10.dtd">
<svg version="1.0" xmlns="http://www.w3.org/2000/svg"
 width="946.000000pt" height="946.000000pt" viewBox="0 0 946.000000 946.000000"
 preserveAspectRatio="xMidYMid meet">
<metadata>
Created by potrace 1.14, written by Peter Selinger 2001-2017
</metadata>
<g transform="translate(0.000000,946.000000) scale(0.100000,-0.100000)"
fill="#000000" stroke="none">
<path d="M14 9196 c8 -14 25 -42 37 -63 12 -21 31 -51 43 -68 11 -16 19 -30
17 -30 -5 0 6 -19 56 -97 12 -21 23 -40 23 -42 0 -3 14 -29 31 -58 98 -164
189 -319 211 -358 29 -53 85 -149 98 -170 9 -13 40 -68 123 -210 11 -19 41
-72 67 -116 45 -81 46 -82 63 -61 9 12 17 27 17 34 0 7 4 13 8 13 5 0 17 18
27 40 10 22 24 45 31 51 8 6 12 15 9 19 -3 4 2 13 10 20 8 7 15 19 15 26 0 8
5 14 10 14 6 0 10 6 10 14 0 7 7 19 15 26 8 7 12 16 9 21 -3 5 0 9 5 9 6 0 11
5 11 10 0 6 18 39 40 74 22 35 40 68 40 75 0 6 4 11 9 11 5 0 11 8 15 18 3 9
14 31 23 47 10 17 36 61 58 98 22 38 49 84 60 103 11 19 58 100 105 180 47 80
90 153 95 162 6 10 32 55 59 102 27 47 56 95 64 108 l14 22 -772 0 -772 0 16
-24z"/>
<path d="M1772 9198 c7 -13 18 -30 24 -38 6 -8 25 -40 42 -71 31 -58 44 -80
78 -134 10 -16 19 -32 19 -35 0 -3 9 -18 19 -35 11 -16 30 -47 43 -67 12 -21
23 -40 23 -42 0 -3 25 -46 55 -97 30 -50 55 -93 55 -95 0 -1 22 -38 48 -81 27
-43 55 -93 63 -111 7 -17 17 -32 21 -32 5 0 8 -5 8 -11 0 -6 14 -30 30 -54 17
-24 30 -46 30 -49 0 -4 18 -36 40 -72 22 -36 40 -67 40 -69 0 -2 18 -33 40
-69 22 -36 40 -70 40 -76 0 -5 4 -10 8 -10 5 0 14 -12 21 -26 l12 -27 21 39
c11 21 56 99 99 171 44 73 79 137 79 141 0 4 5 13 12 20 7 7 26 37 43 67 70
126 219 380 225 385 3 3 14 21 23 40 10 19 26 49 36 65 32 52 123 209 140 240
9 16 18 32 21 35 3 3 11 16 18 30 7 14 22 40 33 58 l21 32 -771 0 -771 0 12
-22z"/>
<path d="M1610 9093 c-18 -32 -53 -91 -77 -131 -24 -40 -43 -74 -43 -77 0 -2
-22 -40 -50 -85 -27 -45 -50 -83 -50 -85 0 -1 -36 -64 -80 -138 -44 -75 -80
-140 -80 -146 0 -6 -4 -11 -8 -11 -4 0 -26 -34 -47 -75 -22 -41 -43 -75 -46
-75 -3 0 -11 -16 -19 -35 -8 -19 -17 -35 -22 -35 -4 0 -8 -4 -8 -9 0 -5 -20
-44 -45 -85 -25 -42 -45 -81 -45 -85 0 -5 -4 -11 -8 -13 -4 -1 -19 -23 -33
-48 -14 -25 -35 -62 -47 -83 l-22 -37 28 1 c15 0 227 0 471 0 244 -1 445 0
447 1 1 2 55 1 119 -2 64 -3 118 -3 120 -2 2 2 80 3 174 2 104 0 171 3 171 9
0 8 -100 186 -130 231 -6 8 -13 22 -17 30 -3 8 -14 26 -23 40 -10 14 -29 45
-42 70 -14 25 -38 68 -54 95 -15 28 -32 52 -36 53 -4 2 -8 8 -8 13 0 8 -29 60
-111 197 -9 15 -25 43 -36 62 -11 19 -31 54 -44 76 -13 23 -60 104 -104 180
-44 77 -83 141 -87 142 -5 2 -8 8 -8 12 0 12 -53 100 -60 100 -3 0 -21 -26
-40 -57z"/>
<path d="M3389 9123 c-8 -16 -16 -30 -19 -33 -3 -3 -33 -52 -65 -109 -102
-178 -106 -185 -131 -223 -13 -21 -24 -39 -24 -41 0 -4 -143 -249 -181 -312
-11 -16 -22 -37 -26 -45 -3 -8 -21 -39 -40 -68 -18 -29 -33 -55 -33 -58 0 -3
-16 -30 -35 -60 -19 -30 -35 -57 -35 -60 0 -4 -38 -68 -77 -130 -7 -10 -22
-38 -34 -62 -12 -23 -25 -45 -30 -48 -5 -3 -9 -13 -9 -22 0 -14 10 -17 66 -16
36 1 67 4 70 6 2 3 25 2 52 -2 26 -3 59 -3 72 0 14 3 44 3 68 0 23 -4 44 -4
46 -1 2 3 93 4 201 1 108 -3 199 -2 200 1 2 3 26 3 52 -1 27 -3 60 -3 73 0 14
3 44 3 68 0 23 -4 44 -4 46 -1 2 3 57 4 121 1 64 -3 119 -2 121 1 1 3 25 3 51
-1 27 -3 60 -3 73 0 14 3 44 3 68 0 24 -4 45 -3 49 3 3 5 9 3 14 -4 7 -11 9
-10 9 4 0 16 -17 55 -30 67 -10 10 -90 153 -90 161 0 5 -4 9 -9 9 -5 0 -13 9
-16 21 -4 12 -24 49 -45 83 -33 53 -274 467 -305 521 -46 83 -78 136 -86 141
-5 3 -7 10 -4 15 4 5 1 9 -4 9 -6 0 -11 4 -11 8 0 13 -149 267 -158 270 -5 1
-15 -10 -23 -25z"/>
<path d="M2670 7700 c-8 -5 -18 -6 -22 -4 -9 6 10 -30 82 -151 76 -129 186
-317 210 -360 12 -22 42 -73 66 -112 24 -40 44 -77 44 -83 0 -5 5 -10 10 -10
6 0 10 -4 10 -10 0 -5 29 -59 65 -120 36 -60 94 -160 130 -220 36 -61 65 -115
65 -120 0 -6 3 -10 8 -10 4 0 20 -27 36 -59 33 -67 37 -66 81 15 15 27 44 78
66 114 52 88 157 269 193 333 16 29 34 55 40 59 6 4 7 8 3 8 -5 0 1 13 12 28
10 15 34 55 52 87 17 33 37 67 44 75 7 8 25 40 41 70 16 30 31 57 34 60 11 10
80 132 80 141 0 5 5 9 11 9 5 0 7 5 4 10 -3 6 -1 10 4 10 6 0 11 5 11 10 0 6
17 39 38 73 21 35 41 70 45 77 4 8 16 30 27 48 l20 33 -33 -1 c-17 -1 -49 0
-69 2 -21 2 -38 0 -38 -5 0 -4 -4 -6 -10 -2 -7 5 -87 7 -150 4 -8 0 -24 2 -35
4 -11 2 -30 0 -42 -4 -13 -5 -23 -5 -23 -1 0 7 -110 6 -142 -2 -10 -2 -18 -1
-18 3 0 7 -86 4 -107 -3 -7 -3 -15 -1 -18 4 -3 6 -15 6 -30 0 -15 -6 -27 -6
-30 0 -4 7 -13 7 -24 0 -10 -5 -21 -7 -24 -4 -10 10 -42 11 -64 3 -13 -5 -23
-5 -23 -1 0 8 -122 7 -145 -1 -8 -4 -15 -3 -15 1 0 7 -110 6 -142 -2 -10 -2
-18 -1 -18 3 0 7 -86 4 -107 -3 -7 -3 -15 -1 -18 4 -3 6 -15 6 -30 0 -15 -6
-27 -6 -30 0 -4 6 -13 7 -24 1 -10 -6 -23 -6 -31 -1 -8 5 -21 5 -31 -1 -11 -5
-19 -5 -21 1 -2 6 -9 6 -18 0z"/>
<path d="M7926 7702 c-3 -5 10 -33 30 -63 19 -30 40 -66 47 -81 6 -16 15 -28
19 -28 5 0 8 -4 8 -9 0 -5 32 -64 72 -132 39 -68 83 -144 96 -169 14 -25 31
-52 37 -60 7 -8 26 -40 42 -70 17 -30 54 -95 83 -145 29 -49 61 -106 72 -125
11 -19 24 -39 28 -45 5 -5 23 -37 41 -70 18 -33 45 -79 61 -102 16 -24 26 -43
22 -43 -4 0 0 -8 8 -17 8 -10 32 -48 52 -85 21 -38 41 -68 45 -68 4 0 14 12
22 28 8 15 17 29 20 32 4 3 16 24 28 47 11 23 25 45 31 48 6 4 8 10 5 15 -3 4
2 13 10 20 8 7 15 19 15 26 0 8 5 14 10 14 6 0 10 6 10 14 0 8 6 21 13 28 6 7
25 38 41 68 16 30 34 62 41 70 6 8 32 51 57 95 25 44 85 147 132 229 47 82 86
152 86 156 0 5 4 10 8 12 4 2 39 57 76 123 38 66 81 140 96 165 15 25 37 62
50 84 l23 39 -36 -5 c-21 -2 -37 -2 -37 2 0 3 -16 5 -35 5 -19 0 -35 -2 -35
-5 0 -3 -22 -5 -50 -5 -27 0 -50 3 -50 7 0 4 -13 3 -30 -2 -17 -5 -30 -5 -30
0 0 5 -13 5 -30 0 -16 -5 -30 -6 -30 -2 0 8 -167 5 -187 -3 -7 -2 -13 0 -13 5
0 5 -13 5 -30 0 -17 -5 -30 -5 -30 0 0 5 -13 5 -30 0 -16 -5 -30 -6 -30 -2 0
4 -58 7 -130 7 -71 0 -130 -2 -130 -5 0 -3 -22 -5 -50 -5 -27 0 -50 2 -50 5 0
3 -15 4 -32 3 -38 -2 -85 -3 -110 -3 -10 0 -24 0 -30 0 -7 -1 -57 0 -111 2
-53 2 -97 1 -97 -2 0 -7 -86 -4 -98 4 -6 3 -13 2 -16 -2z"/>
<path d="M4241 7555 c-28 -47 -51 -90 -51 -94 0 -5 -3 -11 -8 -13 -4 -1 -36
-52 -71 -113 -112 -194 -174 -299 -192 -330 -11 -16 -22 -37 -26 -45 -4 -8
-23 -42 -43 -75 -20 -33 -48 -80 -62 -105 -73 -129 -173 -297 -186 -312 -8
-10 -11 -18 -6 -18 5 0 5 -4 -1 -8 -5 -4 -19 -23 -29 -42 -11 -19 -24 -43 -30
-52 -6 -9 -8 -19 -5 -22 6 -7 369 -9 375 -3 3 3 21 1 40 -3 19 -4 36 -4 39 0
3 4 21 4 40 0 19 -4 37 -4 40 0 3 4 21 4 40 0 19 -4 37 -4 40 0 3 4 21 4 40 0
19 -4 37 -4 40 0 3 4 21 4 40 0 19 -4 37 -4 40 0 3 4 21 4 40 0 19 -4 37 -4
40 0 3 4 20 4 39 0 19 -4 37 -6 39 -3 3 2 136 4 296 3 161 0 291 3 291 8 0 10
-113 210 -130 229 -5 7 -10 14 -10 16 0 3 -36 66 -80 141 -44 76 -80 141 -80
146 0 6 -4 10 -8 10 -4 0 -18 19 -30 43 -27 53 -57 105 -104 182 -66 109 -89
150 -95 168 -3 9 -9 17 -14 17 -5 0 -9 4 -9 9 0 5 -27 55 -60 111 -33 56 -60
104 -60 107 0 3 -8 17 -19 31 -10 15 -28 44 -39 65 l-20 39 -51 -87z"/>
<path d="M7763 7563 c-21 -38 -43 -77 -50 -88 -7 -11 -15 -27 -19 -35 -4 -8
-22 -39 -41 -68 -18 -29 -33 -54 -33 -56 0 -3 -56 -99 -124 -215 -69 -116
-128 -220 -131 -231 -4 -11 -10 -20 -14 -20 -4 0 -18 -22 -31 -50 -13 -27 -27
-50 -32 -50 -4 0 -8 -4 -8 -10 0 -5 -27 -55 -60 -111 -33 -55 -60 -105 -60
-110 0 -5 -3 -9 -8 -9 -4 0 -13 -15 -21 -32 -8 -18 -22 -44 -31 -58 -10 -14
-27 -42 -39 -62 l-21 -38 765 0 c513 0 765 3 765 10 0 6 -11 27 -23 48 -13 20
-35 57 -49 82 -66 117 -218 376 -228 387 -5 7 -10 15 -10 18 0 3 -52 93 -115
201 -63 107 -115 199 -115 204 0 6 -3 10 -8 10 -4 0 -13 15 -21 33 -8 17 -17
34 -21 37 -4 3 -18 25 -31 50 -51 95 -133 230 -140 230 -4 0 -24 -30 -46 -67z"/>
<path d="M3540 6180 c-12 -7 -12 -13 0 -37 8 -15 17 -30 20 -33 3 -3 13 -18
22 -35 64 -109 146 -251 161 -278 10 -18 26 -45 37 -62 11 -16 24 -39 29 -51
5 -12 26 -46 45 -77 20 -31 36 -59 36 -62 0 -4 13 -25 28 -48 15 -23 33 -53
40 -67 7 -14 23 -43 37 -65 14 -22 28 -47 32 -55 3 -8 19 -34 35 -57 15 -23
28 -44 28 -47 0 -4 43 -79 87 -151 7 -11 18 -31 25 -45 7 -14 15 -27 18 -30 3
-3 17 -27 32 -55 15 -27 31 -51 36 -53 4 -1 15 10 23 25 8 16 17 30 20 33 4 3
16 24 28 47 11 23 25 45 31 48 6 4 8 10 5 15 -3 4 2 13 10 20 8 7 15 19 15 26
0 8 5 14 10 14 6 0 10 6 10 14 0 7 7 19 15 26 9 7 14 15 11 17 -2 3 18 40 45
84 27 43 49 83 49 89 0 5 4 10 9 10 5 0 11 8 14 18 4 9 18 35 32 57 13 22 28
46 32 54 10 22 126 221 156 268 15 24 27 46 27 50 0 3 6 14 14 22 8 9 16 23
18 31 2 8 6 17 9 20 4 3 31 48 61 100 30 52 69 119 87 148 40 69 41 83 1 72
-19 -5 -30 -5 -30 1 0 6 -6 6 -18 0 -10 -5 -24 -6 -31 -1 -8 4 -26 4 -42 0
-15 -5 -30 -6 -33 -3 -6 7 -106 9 -106 3 0 -7 -90 -3 -97 4 -3 3 -13 1 -23 -4
-10 -5 -20 -7 -23 -3 -8 7 -97 10 -97 3 0 -7 -90 -3 -97 4 -3 3 -14 1 -24 -4
-10 -6 -20 -6 -23 -2 -3 5 -26 6 -50 2 -25 -4 -51 -3 -58 1 -6 4 -20 3 -29 -2
-10 -5 -20 -5 -23 -1 -3 5 -26 6 -50 2 -25 -4 -51 -3 -58 1 -6 4 -20 3 -29 -2
-10 -5 -20 -5 -23 -1 -3 5 -26 6 -50 2 -25 -4 -51 -3 -58 1 -6 4 -20 3 -29 -2
-11 -5 -20 -5 -24 0 -3 6 -17 6 -34 1 -15 -4 -34 -4 -41 0 -7 5 -24 4 -36 0
-14 -6 -26 -5 -29 0 -4 6 -13 7 -24 1 -9 -5 -23 -6 -30 -1 -8 4 -27 4 -42 0
-17 -5 -29 -5 -29 0 0 6 -9 6 -23 1 -13 -5 -30 -5 -38 -1 -8 5 -21 5 -29 0z"/>
<path d="M7058 6182 c-15 -3 -15 -7 -5 -25 7 -12 17 -29 23 -37 6 -8 25 -40
41 -70 17 -30 44 -79 62 -108 17 -29 31 -57 31 -62 0 -6 5 -10 10 -10 6 0 10
-5 10 -11 0 -6 8 -23 19 -37 10 -15 29 -47 43 -72 61 -111 124 -215 130 -218
5 -2 8 -9 8 -15 0 -7 18 -40 40 -75 22 -34 40 -64 40 -66 0 -4 72 -127 91
-156 5 -8 15 -26 22 -40 7 -14 25 -44 40 -67 15 -24 27 -47 27 -53 0 -5 3 -10
8 -10 4 0 13 -15 21 -32 8 -18 17 -35 20 -38 3 -3 18 -27 33 -55 15 -27 31
-51 36 -53 4 -1 15 10 23 25 8 16 17 30 20 33 4 3 16 24 28 47 11 23 25 45 31
48 6 4 8 10 5 15 -3 4 2 13 10 20 8 7 15 19 15 26 0 8 5 14 10 14 6 0 10 6 10
14 0 7 7 19 15 26 8 7 12 16 9 21 -3 5 0 9 5 9 6 0 11 4 11 9 0 9 58 109 70
121 3 3 6 11 8 18 1 8 11 26 21 40 10 15 49 79 85 142 37 63 71 122 76 130 5
8 34 60 66 115 79 138 157 269 164 275 3 3 6 12 8 20 2 8 8 17 13 18 5 2 9 9
9 16 0 7 11 27 25 46 31 42 33 64 5 57 -11 -3 -20 -2 -20 1 0 4 -20 7 -45 7
-25 0 -45 -2 -45 -5 0 -5 -65 -3 -113 3 -15 3 -30 1 -33 -4 -2 -4 -15 -4 -27
0 -12 5 -34 5 -49 0 -17 -4 -28 -4 -28 2 0 6 -6 6 -18 0 -10 -5 -24 -6 -31 -1
-8 4 -26 4 -42 0 -15 -5 -30 -6 -33 -3 -6 7 -106 9 -106 3 0 -5 -65 -3 -113 3
-15 3 -30 0 -33 -5 -3 -4 -10 -5 -16 -2 -6 4 -32 6 -59 5 -27 -1 -57 -1 -66
-1 -10 0 -29 0 -43 -1 -14 0 -29 -1 -35 0 -5 0 -34 2 -63 3 -28 2 -52 1 -52
-2 0 -5 -65 -3 -113 3 -15 3 -30 1 -33 -4 -2 -4 -15 -4 -27 0 -12 5 -34 5 -49
0 -17 -4 -28 -4 -28 2 0 6 -6 6 -18 0 -10 -5 -24 -6 -32 -1 -7 4 -23 5 -34 0
-11 -4 -32 -4 -46 -1 -14 4 -33 6 -42 3z"/>
<path d="M5143 6072 c-16 -26 -41 -67 -54 -92 -13 -25 -26 -47 -29 -50 -11
-10 -100 -170 -100 -179 0 -5 -4 -11 -8 -13 -5 -1 -33 -46 -62 -98 -30 -52
-58 -97 -62 -98 -5 -2 -6 -7 -3 -12 3 -4 -2 -13 -10 -20 -8 -7 -15 -16 -15
-21 0 -5 -16 -33 -35 -63 -19 -30 -35 -58 -35 -61 0 -4 -8 -19 -19 -33 -10
-15 -29 -47 -43 -72 -14 -25 -56 -97 -93 -160 -37 -63 -79 -135 -93 -160 -13
-25 -28 -49 -32 -55 -4 -5 -17 -27 -29 -47 l-21 -38 88 0 c533 -1 1446 0 1448
3 2 1 -10 23 -25 47 -15 25 -39 65 -53 90 -14 25 -65 113 -113 195 -183 312
-293 501 -312 535 -11 19 -57 97 -102 174 -44 76 -81 142 -81 147 0 5 -4 9 -9
9 -5 0 -14 12 -20 28 -6 15 -19 41 -29 59 l-19 31 -30 -46z"/>
<path d="M6893 6058 c-17 -29 -39 -69 -49 -88 -11 -19 -23 -39 -27 -45 -20
-26 -307 -526 -307 -535 0 -5 -3 -10 -8 -10 -4 0 -16 -17 -27 -37 -11 -21 -78
-137 -149 -258 -71 -121 -137 -235 -147 -252 l-19 -33 165 0 c91 0 419 0 730
0 311 0 581 0 600 0 19 0 35 4 35 9 0 5 -68 126 -151 268 -84 142 -163 278
-177 303 -14 25 -36 62 -49 82 -12 21 -23 40 -23 42 0 3 -18 34 -40 68 -22 35
-40 68 -40 74 0 5 -8 19 -17 30 -10 10 -25 33 -33 49 -8 17 -17 32 -20 35 -10
10 -41 65 -47 83 -3 9 -9 17 -14 17 -5 0 -9 5 -9 11 0 14 -132 239 -140 239
-3 0 -20 -24 -37 -52z"/>
<path d="M3480 5397 l0 -597 65 0 c396 -3 625 1 625 10 0 5 -18 39 -40 75 -22
36 -40 67 -40 69 0 2 -24 44 -54 93 -62 103 -105 179 -120 210 -6 13 -14 23
-18 23 -5 0 -8 4 -8 10 0 5 -58 109 -130 230 -71 121 -130 225 -130 230 0 6
-4 10 -10 10 -5 0 -10 6 -10 14 0 7 -7 19 -15 26 -8 7 -12 16 -9 21 3 5 2 9
-3 9 -4 0 -19 23 -32 50 -14 28 -29 50 -33 50 -4 0 -8 6 -8 13 0 6 -7 21 -15
31 -13 18 -15 -50 -15 -577z"/>
<path d="M3753 4662 l-273 -2 0 -590 c0 -340 4 -590 9 -590 7 0 21 22 25 40 1
3 9 17 19 33 9 15 25 39 34 55 10 15 16 30 15 35 -1 4 3 7 8 7 6 0 10 4 10 9
0 4 32 61 70 125 39 65 70 119 70 122 0 2 12 23 27 47 14 23 40 67 56 97 16
30 35 62 42 70 7 8 25 40 41 70 16 30 31 57 35 60 3 3 19 30 35 60 16 30 32
57 35 60 3 3 14 21 24 40 9 19 23 42 30 50 8 8 14 18 14 23 0 4 7 17 14 30 52
84 77 128 77 136 0 5 -30 9 -66 10 -36 0 -69 2 -72 3 -4 2 -130 2 -279 0z"/>
<path d="M4678 4662 c-171 -1 -268 -6 -268 -12 0 -6 17 -39 38 -73 21 -35 41
-70 45 -77 4 -8 16 -28 27 -45 11 -16 23 -37 26 -45 4 -8 14 -23 22 -32 8 -10
12 -18 9 -18 -4 0 14 -33 40 -72 25 -40 46 -79 46 -85 0 -7 3 -13 7 -13 4 0
20 -24 35 -52 16 -29 41 -72 57 -95 16 -24 26 -43 22 -43 -4 0 0 -8 8 -17 19
-23 73 -117 69 -122 -1 -2 1 -7 6 -10 9 -6 83 -129 83 -138 0 -3 8 -17 19 -31
10 -15 28 -43 39 -62 10 -19 43 -75 72 -125 29 -49 61 -105 70 -123 14 -29 18
-31 29 -18 8 9 10 16 5 16 -5 0 -4 4 2 8 6 4 30 41 55 82 24 41 46 77 49 80 3
3 6 12 8 20 2 8 8 17 13 18 5 2 9 8 9 13 0 5 35 69 79 141 43 73 124 212 179
308 55 96 109 186 119 200 9 14 19 31 20 40 1 8 7 16 12 18 6 2 11 8 11 13 0
5 20 42 44 82 24 39 53 88 64 108 11 20 26 47 34 60 7 13 18 31 25 39 6 8 13
22 15 30 2 8 8 18 13 22 7 6 -437 11 -750 9 -11 0 -66 0 -123 -1 -57 0 -106 1
-110 2 -4 2 -127 2 -274 0z"/>
<path d="M6514 4660 l-351 -5 16 -27 c46 -78 228 -391 241 -415 9 -15 23 -39
31 -53 9 -14 42 -70 74 -125 32 -55 64 -110 72 -122 7 -13 14 -26 14 -30 1 -5
14 -26 29 -48 14 -22 38 -60 51 -85 13 -25 26 -47 29 -50 3 -3 16 -25 29 -50
14 -25 34 -61 46 -80 12 -19 23 -39 24 -45 1 -5 8 -17 15 -25 7 -8 30 -45 50
-82 21 -37 41 -70 45 -72 4 -3 14 10 21 29 8 19 17 35 21 35 4 0 10 9 14 19 3
11 17 36 30 55 13 20 22 36 18 36 -3 0 1 8 9 18 9 9 33 49 55 87 39 68 160
276 258 444 11 18 36 61 56 95 20 33 62 106 95 161 32 55 57 103 56 108 -1 4
2 7 6 7 4 0 19 22 33 50 13 27 27 50 32 50 4 0 7 6 7 14 0 8 6 21 13 28 6 8
20 28 29 46 l17 32 -287 1 c-158 0 -296 0 -307 0 -11 0 -66 0 -123 -1 -57 0
-106 1 -110 2 -4 2 -165 1 -358 -2z"/>
<path d="M6013 4538 c-39 -71 -57 -102 -63 -108 -3 -3 -12 -18 -20 -35 -8 -16
-43 -76 -77 -133 -35 -57 -63 -106 -63 -108 0 -3 -16 -30 -35 -60 -19 -30 -35
-56 -35 -58 0 -2 -27 -50 -60 -105 -33 -56 -60 -106 -60 -111 0 -6 -5 -10 -11
-10 -5 0 -8 -4 -5 -9 3 -5 -1 -11 -9 -15 -8 -3 -15 -15 -15 -26 0 -11 -3 -20
-8 -20 -4 0 -18 -21 -32 -47 -13 -27 -27 -50 -30 -53 -5 -4 -53 -87 -127 -220
-14 -25 -29 -49 -33 -55 -4 -5 -17 -27 -29 -48 l-21 -37 28 1 c23 1 1133 1
1180 0 76 -1 326 0 328 2 2 1 -10 23 -25 47 -15 25 -39 65 -53 90 -14 25 -62
107 -107 184 -44 76 -81 142 -81 147 0 5 -4 9 -10 9 -5 0 -10 4 -10 9 0 5 -19
42 -43 83 -24 40 -55 93 -69 118 -14 25 -53 91 -87 148 -33 57 -61 108 -61
113 0 5 -3 9 -8 9 -4 0 -13 15 -21 33 -8 17 -17 34 -21 37 -4 3 -26 41 -50 85
-24 44 -47 82 -52 83 -4 2 -8 8 -8 12 0 13 -54 100 -62 100 -3 0 -19 -24 -35
-52z"/>
<path d="M4204 4461 c3 -5 -2 -19 -12 -32 -10 -13 -22 -31 -25 -39 -4 -8 -11
-22 -17 -30 -14 -21 -225 -384 -233 -401 -4 -8 -18 -32 -32 -54 -14 -22 -30
-52 -36 -67 -6 -16 -14 -28 -18 -28 -4 0 -18 -22 -31 -50 -13 -27 -27 -50 -32
-50 -4 0 -8 -4 -8 -9 0 -8 -186 -333 -209 -366 -4 -5 -12 -22 -18 -36 l-11
-26 43 7 c24 4 51 3 59 -2 10 -6 16 -5 16 2 0 6 5 8 11 4 7 -4 32 -6 58 -5 53
2 87 2 98 0 4 -1 99 -1 210 0 l202 1 3 110 c2 61 0 110 -3 110 -4 0 -3 18 1
40 4 22 4 40 -1 40 -5 0 -5 9 -1 19 4 11 5 193 2 406 -3 212 -2 393 1 402 7
22 -1 63 -13 63 -5 0 -7 -4 -4 -9z"/>
<path d="M18 3142 c-15 -3 -15 -7 -5 -25 7 -12 17 -29 23 -37 6 -8 25 -40 41
-70 16 -30 44 -78 61 -106 18 -28 32 -56 32 -63 0 -6 5 -11 10 -11 6 0 10 -4
10 -9 0 -5 25 -50 55 -100 30 -51 55 -94 55 -97 0 -3 16 -30 35 -60 19 -30 35
-56 35 -58 0 -3 22 -41 50 -86 27 -45 50 -83 50 -86 0 -2 17 -30 37 -61 20
-32 37 -60 36 -63 0 -3 11 -22 24 -43 13 -21 33 -54 44 -73 10 -19 29 -51 41
-71 12 -21 42 -75 68 -119 45 -81 46 -82 63 -61 9 12 17 27 17 34 0 7 4 13 8
13 5 0 17 18 27 40 10 22 24 45 31 51 8 6 12 15 9 19 -3 4 2 13 10 20 8 7 15
19 15 26 0 8 4 14 9 14 5 0 11 8 15 18 3 9 18 38 34 64 15 26 51 89 81 140 91
157 125 213 134 219 5 3 9 10 8 15 0 12 121 218 131 222 5 2 6 7 3 12 -3 5 0
14 7 22 7 7 20 27 28 43 8 17 18 32 21 35 3 3 14 21 24 40 9 19 24 43 33 53 8
9 12 17 8 17 -4 0 12 27 34 60 22 33 37 60 33 60 -4 0 -3 4 2 8 6 4 16 18 23
31 13 22 12 23 -7 18 -12 -3 -24 -1 -27 4 -3 5 -10 7 -15 3 -15 -9 -78 -11
-92 -2 -6 3 -19 2 -28 -3 -11 -5 -20 -5 -24 0 -3 5 -17 6 -33 2 -15 -5 -36 -5
-47 -1 -11 4 -29 4 -41 0 -11 -5 -27 -5 -34 0 -7 4 -24 4 -39 0 -14 -4 -35 -4
-46 0 -11 4 -29 4 -40 0 -11 -4 -29 -4 -40 0 -11 4 -29 4 -40 0 -11 -4 -29 -4
-40 0 -11 4 -29 4 -41 0 -11 -5 -27 -5 -34 0 -7 4 -24 4 -39 0 -14 -4 -35 -4
-46 0 -11 4 -29 4 -40 0 -11 -4 -29 -4 -40 0 -11 4 -29 4 -40 0 -11 -4 -29 -4
-40 0 -11 4 -29 4 -41 0 -11 -5 -27 -5 -34 0 -7 4 -24 4 -39 0 -14 -4 -35 -4
-46 0 -11 4 -29 4 -40 0 -11 -4 -29 -4 -40 0 -11 4 -29 4 -40 0 -11 -4 -29 -4
-40 0 -11 4 -29 4 -41 0 -11 -5 -27 -5 -34 0 -7 4 -25 4 -40 0 -15 -4 -33 -4
-40 0 -7 5 -23 5 -34 0 -11 -4 -32 -4 -46 -1 -14 4 -33 6 -42 3z"/>
<path d="M3540 3140 c-12 -7 -12 -13 0 -37 8 -15 17 -30 20 -33 3 -3 11 -16
19 -30 8 -14 46 -79 84 -145 39 -66 84 -144 101 -174 17 -29 43 -74 58 -100
15 -25 39 -66 53 -91 14 -25 50 -85 80 -135 29 -49 54 -95 54 -102 1 -6 5 -13
9 -15 7 -3 140 -225 151 -252 8 -19 51 -78 51 -70 4 229 3 584 -1 584 -4 0 -3
18 1 40 4 22 4 40 -1 40 -5 0 -4 11 1 24 5 13 7 26 5 28 -3 2 -5 107 -5 232
-1 224 -2 227 -23 235 -12 5 -26 5 -32 1 -5 -4 -19 -4 -30 0 -11 4 -29 4 -41
0 -11 -5 -27 -5 -34 0 -7 4 -24 4 -39 0 -14 -4 -35 -4 -46 0 -11 4 -29 4 -40
0 -11 -4 -29 -4 -39 0 -11 3 -37 4 -57 0 -21 -4 -43 -4 -50 1 -7 4 -20 4 -30
-1 -9 -5 -19 -6 -23 -3 -7 7 -136 6 -143 -1 -3 -3 -13 -1 -22 4 -10 5 -23 5
-31 0z"/>
<path d="M5296 3141 c-17 -7 -17 -8 -2 -23 9 -9 16 -20 16 -25 0 -5 11 -25 25
-44 13 -20 21 -39 18 -43 -4 -3 -1 -6 5 -6 7 0 12 -4 12 -9 0 -4 27 -53 60
-109 33 -55 60 -105 60 -111 0 -6 4 -11 8 -11 4 0 18 -19 30 -42 12 -24 27
-52 34 -63 46 -74 88 -145 88 -150 0 -2 19 -35 42 -72 39 -65 52 -86 99 -170
12 -21 30 -50 40 -65 11 -14 19 -29 19 -32 0 -4 18 -36 40 -72 22 -36 40 -70
40 -75 0 -5 3 -9 8 -9 4 0 13 -15 21 -32 8 -18 17 -35 20 -38 3 -3 18 -27 33
-55 15 -27 30 -51 35 -52 7 -3 127 197 380 632 35 61 68 117 73 125 5 8 31 53
58 100 26 47 75 130 107 185 32 55 63 109 69 120 6 11 13 22 16 25 3 3 11 16
18 30 7 14 21 40 32 58 l20 33 -35 -3 c-19 -1 -37 1 -41 5 -4 3 -14 2 -24 -3
-10 -5 -20 -7 -23 -3 -8 7 -97 10 -97 3 0 -7 -90 -3 -97 4 -3 3 -14 1 -24 -4
-11 -6 -20 -6 -24 -1 -3 5 -17 6 -33 2 -15 -5 -36 -5 -47 -1 -11 4 -29 4 -41
0 -11 -5 -27 -5 -34 0 -7 4 -24 4 -39 0 -14 -4 -35 -4 -46 0 -11 4 -29 4 -40
0 -11 -4 -29 -4 -40 0 -11 4 -29 4 -40 0 -11 -4 -29 -4 -40 0 -11 4 -29 4 -41
0 -11 -5 -27 -5 -34 0 -7 4 -24 4 -39 0 -14 -4 -35 -4 -46 0 -11 4 -29 4 -40
0 -11 -4 -29 -4 -40 0 -11 4 -29 4 -40 0 -11 -4 -29 -4 -40 0 -11 4 -29 4 -41
0 -11 -5 -27 -5 -34 0 -7 4 -24 4 -39 0 -14 -4 -35 -4 -46 0 -11 4 -29 4 -40
0 -11 -4 -29 -4 -39 0 -11 3 -39 3 -63 0 -24 -4 -46 -3 -49 2 -3 4 -13 4 -22
-1 -10 -5 -24 -6 -32 -1 -8 4 -23 4 -34 1z"/>
<path d="M1601 2996 c-28 -48 -51 -91 -51 -96 0 -6 -4 -10 -10 -10 -5 0 -12
-11 -16 -25 -3 -14 -10 -25 -15 -25 -5 0 -9 -4 -9 -10 0 -5 -18 -39 -40 -75
-22 -36 -40 -69 -40 -73 0 -5 -9 -18 -20 -30 -12 -12 -18 -22 -15 -22 3 0 -10
-25 -30 -55 -19 -31 -35 -57 -35 -59 0 -2 -43 -77 -96 -167 -53 -90 -108 -184
-122 -209 -14 -25 -33 -57 -43 -72 -11 -14 -19 -28 -19 -31 0 -3 -28 -52 -61
-109 -104 -173 -101 -167 -81 -167 9 0 80 0 157 0 77 0 147 0 155 1 8 0 62 0
120 -1 58 0 112 0 120 0 23 1 230 0 270 -2 19 -1 42 -1 50 0 8 0 38 0 65 0 28
0 57 0 65 0 8 0 62 0 120 0 58 -1 112 -1 120 0 19 1 220 0 229 -1 21 -2 41 3
41 12 0 6 -11 27 -23 48 -13 20 -35 57 -49 82 -34 61 -196 339 -216 370 -9 14
-14 26 -11 26 2 1 -3 10 -12 20 -9 11 -33 48 -53 84 -20 36 -41 72 -46 80 -31
50 -90 151 -90 154 0 2 -18 34 -40 70 -22 36 -40 70 -40 75 0 5 -3 11 -8 13
-6 3 -122 198 -158 266 -12 23 -14 20 -63 -62z"/>
<path d="M3330 2943 c-41 -71 -80 -137 -86 -148 -6 -11 -26 -45 -44 -75 -18
-30 -41 -69 -50 -85 -31 -55 -162 -279 -181 -310 -10 -16 -22 -37 -26 -45 -4
-8 -24 -43 -45 -78 -21 -34 -38 -65 -38 -68 0 -2 -5 -10 -10 -17 -19 -22 -200
-340 -200 -351 0 -7 25 -10 72 -8 40 1 120 2 178 1 58 -1 112 -1 120 0 8 0 62
0 120 0 58 -1 112 -1 120 0 8 0 33 1 55 0 22 0 47 0 55 0 8 0 38 0 65 0 28 0
57 0 65 0 8 0 62 0 120 0 58 -1 112 -1 120 0 8 0 62 0 120 0 58 -1 112 -1 120
0 50 3 175 -1 182 -5 22 -14 2 36 -52 127 -33 55 -60 105 -60 110 0 5 -3 9 -8
9 -4 0 -15 17 -25 38 -9 20 -38 70 -62 110 -25 41 -45 78 -45 83 0 5 -4 9 -9
9 -5 0 -12 11 -15 25 -4 14 -11 25 -16 25 -6 0 -10 5 -10 11 0 6 -17 39 -37
73 -21 33 -47 77 -58 97 -73 131 -350 599 -355 599 -3 0 -39 -57 -80 -127z"/>
<path d="M890 1615 c0 -14 45 -96 80 -145 10 -14 17 -27 17 -30 0 -3 6 -16 15
-30 15 -24 71 -120 110 -188 10 -18 25 -43 32 -55 15 -23 26 -42 121 -208 33
-57 63 -105 67 -107 4 -2 8 -8 8 -13 0 -9 47 -94 82 -147 10 -15 21 -34 25
-42 4 -8 33 -59 65 -113 32 -53 58 -102 58 -107 0 -6 3 -10 8 -10 4 0 20 -27
36 -59 33 -67 37 -66 81 15 14 27 39 69 55 94 16 25 29 51 29 58 1 6 6 12 11
12 6 0 10 6 10 14 0 8 6 21 13 28 6 7 25 38 41 68 16 30 34 62 41 70 6 8 23
35 37 60 13 25 49 88 80 140 190 325 228 392 228 401 0 5 4 9 9 9 5 0 12 9 16
19 3 11 17 36 30 55 13 20 22 36 18 36 -3 0 1 8 9 18 9 9 34 50 57 91 l41 73
-45 -4 c-25 -2 -45 0 -45 4 0 4 -11 3 -25 -2 -14 -5 -27 -5 -30 0 -3 5 -18 5
-35 0 -17 -5 -30 -5 -30 0 0 5 -13 5 -29 0 -16 -4 -32 -5 -36 -2 -7 7 -91 6
-104 -2 -5 -4 -12 -2 -15 3 -4 6 -18 6 -36 1 -17 -5 -30 -5 -30 -1 0 5 -18 5
-39 1 -22 -4 -45 -4 -52 1 -7 4 -20 4 -29 -1 -9 -5 -23 -4 -32 1 -10 6 -19 6
-22 0 -4 -5 -18 -6 -34 -2 -15 4 -42 4 -59 0 -18 -4 -33 -4 -33 0 0 7 -86 5
-99 -4 -5 -3 -12 -1 -15 4 -4 6 -18 6 -36 1 -17 -5 -30 -5 -30 -1 0 4 -25 4
-55 1 -30 -3 -55 -3 -55 2 0 4 -11 3 -25 -2 -14 -5 -27 -5 -30 0 -3 5 -18 5
-35 0 -17 -5 -30 -5 -30 0 0 5 -13 5 -29 0 -16 -4 -32 -5 -36 -2 -7 7 -91 6
-104 -2 -5 -4 -12 -2 -15 3 -4 6 -18 6 -36 1 -17 -5 -30 -5 -30 0 0 4 -15 5
-33 0 -18 -4 -43 -3 -55 1 -16 6 -22 5 -22 -6z"/>
<path d="M2669 1618 c-10 -4 -19 -10 -19 -14 0 -3 29 -54 63 -112 152 -255
197 -332 197 -337 0 -3 8 -18 19 -33 10 -15 44 -72 76 -127 32 -55 64 -110 72
-122 7 -13 14 -26 14 -30 1 -5 14 -26 29 -48 15 -22 40 -64 56 -93 50 -90 59
-106 87 -149 15 -24 27 -47 27 -53 0 -5 3 -10 8 -10 4 0 13 -15 21 -32 8 -18
17 -35 21 -38 3 -3 19 -30 35 -61 33 -64 35 -63 81 17 16 29 48 86 72 128 24
41 47 78 53 81 5 4 7 11 4 16 -4 5 -1 9 4 9 6 0 11 4 11 9 0 5 18 39 40 75 22
36 40 70 40 76 0 5 5 10 10 10 6 0 10 4 10 9 0 5 37 71 81 147 45 77 98 168
119 204 21 36 74 127 119 203 44 75 81 142 81 147 0 6 5 10 10 10 6 0 10 6 10
14 0 7 7 19 15 26 8 7 12 16 9 21 -3 5 -2 9 3 9 14 0 33 50 20 51 -41 3 -220
-2 -228 -7 -5 -3 -9 -1 -9 5 0 7 -8 7 -25 1 -14 -5 -27 -5 -30 0 -3 5 -18 5
-35 0 -17 -5 -30 -5 -30 0 0 5 -13 5 -29 0 -16 -4 -32 -5 -36 -2 -7 7 -91 6
-104 -2 -5 -4 -12 -2 -15 3 -4 6 -18 6 -36 1 -17 -5 -30 -5 -30 -1 0 5 -18 5
-39 1 -22 -4 -45 -4 -52 1 -7 4 -20 4 -29 -1 -9 -5 -23 -4 -32 1 -10 6 -19 6
-22 0 -4 -5 -18 -6 -34 -2 -15 4 -42 4 -59 0 -18 -4 -33 -4 -33 0 0 7 -86 5
-99 -4 -5 -3 -12 -1 -15 4 -4 6 -18 6 -36 1 -17 -5 -30 -5 -30 -1 0 4 -25 4
-55 1 -30 -3 -55 -3 -55 2 0 4 -11 3 -25 -2 -14 -5 -27 -5 -30 0 -3 5 -18 5
-35 0 -17 -5 -30 -5 -30 0 0 5 -13 5 -29 0 -16 -4 -32 -6 -35 -3 -8 8 -95 9
-117 1z"/>
<path d="M2464 1449 c-96 -166 -106 -182 -132 -229 -14 -25 -33 -57 -43 -72
-11 -14 -19 -28 -19 -31 0 -3 -40 -73 -90 -157 -49 -84 -90 -156 -90 -160 0
-5 -6 -15 -14 -22 -7 -8 -23 -32 -35 -54 -12 -21 -26 -46 -31 -54 -5 -8 -55
-94 -111 -190 -55 -96 -110 -190 -121 -207 l-20 -33 772 0 772 0 -20 33 c-11
17 -29 48 -40 67 -11 19 -72 124 -136 233 -64 109 -116 202 -116 208 0 5 -4 9
-8 9 -4 0 -18 19 -30 43 -27 53 -57 105 -104 182 -66 109 -89 150 -95 168 -3
9 -9 17 -14 17 -5 0 -9 4 -9 10 0 5 -17 38 -38 72 -21 35 -41 68 -43 73 -11
27 -114 195 -119 195 -3 0 -33 -46 -66 -101z"/>
</g>
</svg>
